# xmcd
#
# Track frame offsets: 
#        182
#        25682
#        42457
#        58370
#        77532
#        104122
#        114082
#        144435
#        160462
#        184420
#        212157
#        236520
#
# Disc length: 3412 seconds
#
# Revision: 5
# Processed by: cddbd v1.5.2PL0 Copyright (c) Steve Scherf et al.
# Submitted via: ExactAudioCopy v1.0b4
#
DISCID=a90d520c
DTITLE=Lucky Peterson - Lifetime
DYEAR=1995
DGENRE=Blues
TTITLE0=Bad condition
TTITLE1=Shining star
TTITLE2=We'll be together
TTITLE3=Lifetime
TTITLE4=Next in line
TTITLE5=Blue interlude
TTITLE6=Wash my back
TTITLE7=I ain't buyin'
TTITLE8=Ham-Buger
TTITLE9=Bird in the hand
TTITLE10=Hide away
TTITLE11=A change is gonna come
EXTD=
EXTT0=
EXTT1=
EXTT2=
EXTT3=
EXTT4=
EXTT5=
EXTT6=
EXTT7=
EXTT8=
EXTT9=
EXTT10=
EXTT11=
PLAYORDER=
